<svg width="98" height="17" viewBox="0 0 98 17" fill="none" xmlns="http://www.w3.org/2000/svg">
<path d="M6.786 3.77976C8.418 3.77976 9.618 4.10976 10.386 4.76976C11.166 5.42976 11.556 6.29376 11.556 7.36176C11.556 7.72176 11.508 8.12376 11.412 8.56776C11.184 9.55176 10.758 10.4158 10.134 11.1598C9.51 11.8918 8.742 12.4618 7.83 12.8698C6.93 13.2658 5.952 13.4638 4.896 13.4638C3.228 13.4638 1.992 13.1338 1.188 12.4738C0.396 11.8018 -2.92435e-07 10.9138 -2.92435e-07 9.80976C-2.92435e-07 9.43776 0.0479997 9.02376 0.144 8.56776C0.372 7.63176 0.804 6.80376 1.44 6.08376C2.088 5.35176 2.874 4.78776 3.798 4.39176C4.734 3.98376 5.73 3.77976 6.786 3.77976ZM6.732 5.38176C6.48 5.38176 6.21 5.60976 5.922 6.06576C5.646 6.50976 5.316 7.35576 4.932 8.60376C4.548 9.85176 4.356 10.7278 4.356 11.2318C4.356 11.4958 4.398 11.6758 4.482 11.7718C4.566 11.8558 4.68 11.8978 4.824 11.8978C5.076 11.9218 5.334 11.7058 5.598 11.2498C5.874 10.7938 6.216 9.90576 6.624 8.58576C6.996 7.42176 7.182 6.57576 7.182 6.04776C7.182 5.79576 7.14 5.62176 7.056 5.52576C6.984 5.42976 6.876 5.38176 6.732 5.38176ZM22.3149 10.8178C22.2909 10.8658 22.2789 10.9378 22.2789 11.0338C22.2789 11.1178 22.2969 11.1838 22.3329 11.2318C22.3809 11.2798 22.4409 11.3038 22.5129 11.3038C22.6569 11.3038 22.7769 11.2438 22.8729 11.1238C22.9809 10.9918 23.0529 10.9258 23.0889 10.9258C23.1489 10.9258 23.1969 10.9678 23.2329 11.0518C23.2689 11.1238 23.2869 11.2138 23.2869 11.3218C23.2989 11.6698 23.1849 12.0118 22.9449 12.3478C22.7049 12.6718 22.3509 12.9418 21.8829 13.1578C21.4269 13.3618 20.8749 13.4638 20.2269 13.4638C19.4349 13.4638 18.8049 13.2838 18.3369 12.9238C17.8689 12.5518 17.6289 12.0598 17.6169 11.4478C17.6169 11.0038 17.7249 10.5058 17.9409 9.95376L18.9309 7.36176C18.9909 7.20576 19.0209 7.07976 19.0209 6.98376C19.0209 6.82776 18.9669 6.70776 18.8589 6.62376C18.7629 6.52776 18.6429 6.47976 18.4989 6.47976C18.2709 6.47976 18.0369 6.58776 17.7969 6.80376C17.5689 7.00776 17.3829 7.34376 17.2389 7.81176V7.77576L16.1049 11.4298C16.0689 11.5738 16.0509 11.6998 16.0509 11.8078C16.0509 11.9638 16.0809 12.0898 16.1409 12.1858C16.2009 12.2698 16.2849 12.3538 16.3929 12.4378C16.4769 12.5218 16.5369 12.5938 16.5729 12.6538C16.6089 12.7018 16.6149 12.7678 16.5909 12.8518C16.5309 13.0078 16.4109 13.1218 16.2309 13.1938C16.0509 13.2658 15.7749 13.3018 15.4029 13.3018H11.2989C10.9869 13.3018 10.7589 13.2538 10.6149 13.1578C10.4709 13.0498 10.4229 12.9118 10.4709 12.7438C10.5189 12.5998 10.6449 12.4738 10.8489 12.3658C11.0289 12.2698 11.1789 12.1558 11.2989 12.0238C11.4189 11.8918 11.5209 11.6818 11.6049 11.3938L14.3409 2.41176C14.3769 2.30376 14.3949 2.21376 14.3949 2.14176C14.3949 2.00976 14.3589 1.90176 14.2869 1.81776C14.2269 1.73376 14.1429 1.64976 14.0349 1.56576C13.9149 1.46976 13.8249 1.38576 13.7649 1.31376C13.7169 1.24176 13.7109 1.14576 13.7469 1.02576C13.8189 0.749757 14.1969 0.509757 14.8809 0.305757C15.5649 0.101757 16.2789 -0.000242591 17.0229 -0.000242591C17.7189 -0.000242591 18.2289 0.131757 18.5529 0.395758C18.8889 0.659757 19.0569 1.01976 19.0569 1.47576C19.0569 1.73976 19.0149 1.99776 18.9309 2.24976L17.9589 5.41776C18.4269 4.80576 18.9189 4.37976 19.4349 4.13976C19.9629 3.89976 20.5329 3.77976 21.1449 3.77976C21.8769 3.77976 22.4649 4.00176 22.9089 4.44576C23.3649 4.88976 23.5929 5.46576 23.5929 6.17376C23.5929 6.54576 23.5329 6.91176 23.4129 7.27176L22.3149 10.8178ZM41.1782 10.8178C41.1542 10.8658 41.1422 10.9378 41.1422 11.0338C41.1422 11.1178 41.1602 11.1838 41.1962 11.2318C41.2442 11.2798 41.3042 11.3038 41.3762 11.3038C41.5202 11.3038 41.6402 11.2438 41.7362 11.1238C41.8442 10.9918 41.9162 10.9258 41.9522 10.9258C42.0122 10.9258 42.0602 10.9678 42.0962 11.0518C42.1322 11.1238 42.1502 11.2138 42.1502 11.3218C42.1622 11.6698 42.0482 12.0118 41.8082 12.3478C41.5682 12.6718 41.2142 12.9418 40.7462 13.1578C40.2902 13.3618 39.7382 13.4638 39.0902 13.4638C38.2982 13.4638 37.6682 13.2838 37.2002 12.9238C36.7322 12.5518 36.4922 12.0598 36.4802 11.4478C36.4802 11.0038 36.5882 10.5058 36.8042 9.95376L37.7942 7.36176C37.8542 7.20576 37.8842 7.07976 37.8842 6.98376C37.8842 6.82776 37.8302 6.70776 37.7222 6.62376C37.6262 6.52776 37.5062 6.47976 37.3622 6.47976C37.1582 6.47976 36.9482 6.56976 36.7322 6.74976C36.5162 6.92976 36.3242 7.21176 36.1562 7.59576L35.1662 10.8178C35.1422 10.8658 35.1302 10.9378 35.1302 11.0338C35.1302 11.1178 35.1482 11.1838 35.1842 11.2318C35.2322 11.2798 35.2922 11.3038 35.3642 11.3038C35.5082 11.3038 35.6282 11.2438 35.7242 11.1238C35.8322 10.9918 35.9042 10.9258 35.9402 10.9258C36.0002 10.9258 36.0482 10.9678 36.0842 11.0518C36.1202 11.1238 36.1382 11.2138 36.1382 11.3218C36.1502 11.6698 36.0362 12.0118 35.7962 12.3478C35.5562 12.6718 35.2022 12.9418 34.7342 13.1578C34.2782 13.3618 33.7262 13.4638 33.0782 13.4638C32.2862 13.4638 31.6562 13.2838 31.1882 12.9238C30.7202 12.5518 30.4802 12.0598 30.4682 11.4478C30.4682 11.0038 30.5762 10.5058 30.7922 9.95376L31.7822 7.36176C31.8422 7.20576 31.8722 7.07976 31.8722 6.98376C31.8722 6.82776 31.8182 6.70776 31.7102 6.62376C31.6142 6.52776 31.4942 6.47976 31.3502 6.47976C31.1462 6.47976 30.9362 6.56976 30.7202 6.74976C30.5042 6.91776 30.3242 7.19376 30.1802 7.57776L28.9922 11.4298C28.9442 11.5618 28.9202 11.6878 28.9202 11.8078C28.9202 11.9518 28.9502 12.0718 29.0102 12.1678C29.0702 12.2518 29.1542 12.3418 29.2622 12.4378C29.3462 12.5098 29.4062 12.5758 29.4422 12.6358C29.4782 12.6958 29.4842 12.7678 29.4602 12.8518C29.4122 13.0078 29.2982 13.1218 29.1182 13.1938C28.9382 13.2658 28.6562 13.3018 28.2722 13.3018H24.1682C23.8562 13.3018 23.6342 13.2538 23.5022 13.1578C23.3582 13.0498 23.3042 12.9118 23.3402 12.7438C23.3882 12.5998 23.5142 12.4738 23.7182 12.3658C23.8982 12.2698 24.0482 12.1558 24.1682 12.0238C24.2882 11.8918 24.3902 11.6818 24.4742 11.3938L26.0762 6.19176C26.1002 6.13176 26.1122 6.04776 26.1122 5.93976C26.1122 5.80776 26.0822 5.70576 26.0222 5.63376C25.9742 5.56176 25.8902 5.47176 25.7702 5.36376C25.6502 5.26776 25.5662 5.18376 25.5182 5.11176C25.4702 5.03976 25.4642 4.94376 25.5002 4.82376C25.5722 4.54776 25.9502 4.30776 26.6342 4.10376C27.3182 3.88776 28.0322 3.77976 28.7762 3.77976C29.3642 3.77976 29.8262 3.94176 30.1622 4.26576C30.5102 4.58976 30.6782 5.03376 30.6662 5.59776C31.1582 4.91376 31.6742 4.43976 32.2142 4.17576C32.7662 3.91176 33.3602 3.77976 33.9962 3.77976C34.6922 3.77976 35.2562 3.98376 35.6882 4.39176C36.1322 4.78776 36.3782 5.30976 36.4262 5.95776C36.9422 5.14176 37.4942 4.57776 38.0822 4.26576C38.6702 3.94176 39.3122 3.77976 40.0082 3.77976C40.7402 3.77976 41.3282 4.00176 41.7722 4.44576C42.2282 4.88976 42.4562 5.46576 42.4562 6.17376C42.4562 6.54576 42.3962 6.91176 42.2762 7.27176L41.1782 10.8178ZM52.2858 3.77976C52.8138 3.77976 53.2338 3.99576 53.5458 4.42776C53.8698 4.84776 54.0318 5.42376 54.0318 6.15576C54.0318 6.79176 53.9178 7.47576 53.6898 8.20776C53.2458 9.68376 52.5318 11.0758 51.5478 12.3838C50.5758 13.6918 49.4538 14.7418 48.1818 15.5338C46.9218 16.3258 45.6618 16.7218 44.4018 16.7218C43.7778 16.7218 43.2378 16.6138 42.7818 16.3978C42.3378 16.1818 42.0018 15.8938 41.7738 15.5338C41.5338 15.1738 41.4138 14.7898 41.4138 14.3818C41.4138 14.2018 41.4438 14.0038 41.5038 13.7878C41.6118 13.4518 41.7918 13.1938 42.0438 13.0138C42.2958 12.8338 42.5958 12.7438 42.9438 12.7438C43.4958 12.7438 43.9458 12.9298 44.2938 13.3018C44.6538 13.6858 44.8818 14.2078 44.9778 14.8678C45.7458 14.8318 46.4538 14.5018 47.1018 13.8778C46.4898 13.7698 46.0338 13.5658 45.7338 13.2658C45.4458 12.9538 45.2478 12.4738 45.1398 11.8258L44.4198 7.41576C44.3838 7.18776 44.3298 7.03176 44.2578 6.94776C44.1978 6.85176 44.1138 6.80376 44.0058 6.80376C43.9218 6.80376 43.8198 6.84576 43.6998 6.92976C43.5918 7.01376 43.5138 7.05576 43.4658 7.05576C43.3698 7.05576 43.3218 6.95376 43.3218 6.74976C43.3218 6.58176 43.3518 6.40176 43.4118 6.20976C43.6278 5.52576 44.0298 4.94976 44.6178 4.48176C45.2058 4.00176 45.8898 3.76176 46.6698 3.76176C47.4378 3.76176 48.0018 3.98976 48.3618 4.44576C48.7338 4.90176 48.9738 5.60376 49.0818 6.55176L49.6218 10.5118C49.6578 10.8118 49.7658 10.9618 49.9458 10.9618C50.1618 10.9618 50.4138 10.7698 50.7018 10.3858C50.9898 9.98976 51.2718 9.43176 51.5478 8.71176C51.1878 8.38776 50.9118 8.01576 50.7198 7.59576C50.5278 7.17576 50.4318 6.72576 50.4318 6.24576C50.4318 5.87376 50.4798 5.53776 50.5758 5.23776C50.7198 4.75776 50.9418 4.39776 51.2418 4.15776C51.5538 3.90576 51.9018 3.77976 52.2858 3.77976ZM61.2519 -0.000242591C62.5359 -0.000242591 63.4959 0.197757 64.1319 0.593757C64.7799 0.977757 65.1039 1.45176 65.1039 2.01576C65.1039 2.47176 64.9119 2.82576 64.5279 3.07776C64.1559 3.31776 63.6639 3.43776 63.0519 3.43776C62.4879 3.43776 62.0499 3.29976 61.7379 3.02376C61.4259 2.74776 61.2699 2.40576 61.2699 1.99776C61.2699 1.74576 61.3479 1.48176 61.5039 1.20576C61.1439 1.20576 60.8439 1.29576 60.6039 1.47576C60.3639 1.64376 60.1779 1.93776 60.0459 2.35776C59.9739 2.62176 59.9379 2.86776 59.9379 3.09576C59.9379 3.38376 59.9859 3.61176 60.0819 3.77976C60.1899 3.93576 60.3399 4.01376 60.5319 4.01376H61.5939C62.2179 4.01376 62.5299 4.20576 62.5299 4.58976C62.5299 4.63776 62.5179 4.70976 62.4939 4.80576C62.4219 5.06976 62.2719 5.26776 62.0439 5.39976C61.8279 5.53176 61.4979 5.59776 61.0539 5.59776H60.5139L58.7319 11.4298C58.6959 11.5738 58.6779 11.6998 58.6779 11.8078C58.6779 11.9638 58.7079 12.0898 58.7679 12.1858C58.8279 12.2698 58.9119 12.3538 59.0199 12.4378C59.1039 12.5218 59.1639 12.5938 59.1999 12.6538C59.2359 12.7018 59.2419 12.7678 59.2179 12.8518C59.1579 13.0078 59.0379 13.1218 58.8579 13.1938C58.6779 13.2658 58.4019 13.3018 58.0299 13.3018H53.9259C53.6139 13.3018 53.3859 13.2538 53.2419 13.1578C53.0979 13.0498 53.0499 12.9118 53.0979 12.7438C53.1459 12.5998 53.2719 12.4738 53.4759 12.3658C53.6559 12.2698 53.8059 12.1558 53.9259 12.0238C54.0459 11.8918 54.1479 11.6818 54.2319 11.3938L55.6359 6.78576C55.6959 6.60576 55.7259 6.41976 55.7259 6.22776C55.7259 5.98776 55.6719 5.80176 55.5639 5.66976C55.4679 5.52576 55.3179 5.36976 55.1139 5.20176C54.9819 5.09376 54.8799 5.00376 54.8079 4.93176C54.7479 4.84776 54.7179 4.75176 54.7179 4.64376C54.7059 4.41576 54.7839 4.25376 54.9519 4.15776C55.1319 4.06176 55.4679 4.01376 55.9599 4.01376H56.4099C56.3259 3.71376 56.2839 3.41376 56.2839 3.11376C56.2839 2.81376 56.3379 2.50176 56.4459 2.17776C56.6739 1.56576 57.1599 1.04976 57.9039 0.629757C58.6599 0.209757 59.7759 -0.000242591 61.2519 -0.000242591ZM68.3622 3.77976C69.9942 3.77976 71.1942 4.10976 71.9622 4.76976C72.7422 5.42976 73.1322 6.29376 73.1322 7.36176C73.1322 7.72176 73.0842 8.12376 72.9882 8.56776C72.7602 9.55176 72.3342 10.4158 71.7102 11.1598C71.0862 11.8918 70.3182 12.4618 69.4062 12.8698C68.5062 13.2658 67.5282 13.4638 66.4722 13.4638C64.8042 13.4638 63.5682 13.1338 62.7642 12.4738C61.9722 11.8018 61.5762 10.9138 61.5762 9.80976C61.5762 9.43776 61.6242 9.02376 61.7202 8.56776C61.9482 7.63176 62.3802 6.80376 63.0162 6.08376C63.6642 5.35176 64.4502 4.78776 65.3742 4.39176C66.3102 3.98376 67.3062 3.77976 68.3622 3.77976ZM68.3082 5.38176C68.0562 5.38176 67.7862 5.60976 67.4982 6.06576C67.2222 6.50976 66.8922 7.35576 66.5082 8.60376C66.1242 9.85176 65.9322 10.7278 65.9322 11.2318C65.9322 11.4958 65.9742 11.6758 66.0582 11.7718C66.1422 11.8558 66.2562 11.8978 66.4002 11.8978C66.6522 11.9218 66.9102 11.7058 67.1742 11.2498C67.4502 10.7938 67.7922 9.90576 68.2002 8.58576C68.5722 7.42176 68.7582 6.57576 68.7582 6.04776C68.7582 5.79576 68.7162 5.62176 68.6322 5.52576C68.5602 5.42976 68.4522 5.38176 68.3082 5.38176ZM80.1747 3.77976C81.8067 3.77976 83.0067 4.10976 83.7747 4.76976C84.5547 5.42976 84.9447 6.29376 84.9447 7.36176C84.9447 7.72176 84.8967 8.12376 84.8007 8.56776C84.5727 9.55176 84.1467 10.4158 83.5227 11.1598C82.8987 11.8918 82.1307 12.4618 81.2187 12.8698C80.3187 13.2658 79.3407 13.4638 78.2847 13.4638C76.6167 13.4638 75.3807 13.1338 74.5767 12.4738C73.7847 11.8018 73.3887 10.9138 73.3887 9.80976C73.3887 9.43776 73.4367 9.02376 73.5327 8.56776C73.7607 7.63176 74.1927 6.80376 74.8287 6.08376C75.4767 5.35176 76.2627 4.78776 77.1867 4.39176C78.1227 3.98376 79.1187 3.77976 80.1747 3.77976ZM80.1207 5.38176C79.8687 5.38176 79.5987 5.60976 79.3107 6.06576C79.0347 6.50976 78.7047 7.35576 78.3207 8.60376C77.9367 9.85176 77.7447 10.7278 77.7447 11.2318C77.7447 11.4958 77.7867 11.6758 77.8707 11.7718C77.9547 11.8558 78.0687 11.8978 78.2127 11.8978C78.4647 11.9218 78.7227 11.7058 78.9867 11.2498C79.2627 10.7938 79.6047 9.90576 80.0127 8.58576C80.3847 7.42176 80.5707 6.57576 80.5707 6.04776C80.5707 5.79576 80.5287 5.62176 80.4447 5.52576C80.3727 5.42976 80.2647 5.38176 80.1207 5.38176ZM95.0832 10.7098C95.0592 10.8058 95.0472 10.8718 95.0472 10.9078C95.0472 10.9918 95.0712 11.0578 95.1192 11.1058C95.1672 11.1538 95.2272 11.1778 95.2992 11.1778C95.4432 11.1778 95.5632 11.1178 95.6592 10.9978C95.7672 10.8658 95.8392 10.7998 95.8752 10.7998C95.9352 10.7998 95.9832 10.8418 96.0192 10.9258C96.0552 11.0098 96.0732 11.1058 96.0732 11.2138C96.0852 11.5378 95.9592 11.8678 95.6952 12.2038C95.4432 12.5398 95.1012 12.8158 94.6692 13.0318C94.2372 13.2478 93.7692 13.3558 93.2652 13.3558C92.6652 13.3558 92.1432 13.2418 91.6992 13.0138C91.2552 12.7858 90.9492 12.4858 90.7812 12.1138C90.4572 12.5338 90.0852 12.8458 89.6652 13.0498C89.2452 13.2538 88.8012 13.3558 88.3332 13.3558C87.7812 13.3558 87.2652 13.2178 86.7852 12.9418C86.3172 12.6658 85.9392 12.2758 85.6512 11.7718C85.3752 11.2558 85.2372 10.6738 85.2372 10.0258C85.2372 8.93376 85.4412 7.90776 85.8492 6.94776C86.2692 5.97576 86.8512 5.19576 87.5952 4.60776C88.3392 4.00776 89.1852 3.70776 90.1332 3.70776C90.6492 3.70776 91.0872 3.76776 91.4472 3.88776C91.8192 4.00776 92.1552 4.18776 92.4552 4.42776L93.0672 2.41176C93.1032 2.30376 93.1212 2.21376 93.1212 2.14176C93.1212 2.00976 93.0852 1.90176 93.0132 1.81776C92.9532 1.73376 92.8692 1.64976 92.7612 1.56576C92.6412 1.46976 92.5512 1.38576 92.4912 1.31376C92.4432 1.24176 92.4372 1.14576 92.4732 1.02576C92.5452 0.749757 92.9232 0.509757 93.6072 0.305757C94.2912 0.101757 95.0052 -0.000242591 95.7492 -0.000242591C96.4452 -0.000242591 96.9552 0.131757 97.2792 0.395758C97.6152 0.659757 97.7832 1.01976 97.7832 1.47576C97.7832 1.73976 97.7412 1.99776 97.6572 2.24976L95.0832 10.7098ZM92.0772 5.65176C91.8852 5.48376 91.6752 5.39976 91.4472 5.39976C91.0992 5.39976 90.7572 5.65776 90.4212 6.17376C90.0852 6.68976 89.8152 7.31376 89.6112 8.04576C89.4072 8.77776 89.3112 9.43776 89.3232 10.0258C89.3232 10.6858 89.5392 11.0158 89.9712 11.0158C90.1272 11.0158 90.2592 10.9558 90.3672 10.8358C90.4752 10.7038 90.5772 10.4938 90.6732 10.2058L92.0772 5.65176Z" fill="white"/>
</svg>
